<?xml version="1.0" encoding="utf-8"?>
<!-- Generator: Adobe Illustrator 26.1.0, SVG Export Plug-In . SVG Version: 6.00 Build 0)  -->
<svg version="1.1" id="Layer_1" xmlns="http://www.w3.org/2000/svg" xmlns:xlink="http://www.w3.org/1999/xlink" x="0px" y="0px"
	 viewBox="0 0 268.8 137.9" style="enable-background:new 0 0 268.8 137.9;" xml:space="preserve">
<style type="text/css">
	.st0{fill:#FFFFFF;}
	.st1{fill:none;}
</style>
<g id="g10" transform="translate(0 101.932)">
	<g id="g12" transform="translate(0 -101.932)">
		<path id="path14" class="st0" d="M192.9,94.3h-5.4V32.7h5.4L192.9,94.3"/>
		<path id="path16" class="st0" d="M234.7,30c-11.4,0-21.9,5.8-28.1,15.3V32.7h-5.4v61.6h5.4V63.5c0-15.5,12.6-28.1,28.1-28.1
			c15.5,0,28.1,12.6,28.1,28.1v30.8h5.4V63.5C268.2,45,253.2,30,234.7,30"/>
		<path id="path18" class="st0" d="M34.6,30c-11.4,0-21.9,5.8-28.1,15.3V32.7H1v61.6h5.4V63.5C6.5,48,19,35.4,34.6,35.4
			c4.1,0,8.2,0.9,12,2.7l2.3-4.9C44.4,31,39.5,30,34.6,30"/>
		<path id="path20" class="st0" d="M149.2,97c-18.5,0-33.5-15-33.5-33.5V0h5.4v63.5c0,15.5,12.6,28.1,28.1,28.1
			c15.5,0,28.1-12.6,28.1-28.1c0-15.5-12.6-28.1-28.1-28.1c-8.1,0-15.7,3.5-21.1,9.5l-4.1-3.6c6.4-7.2,15.5-11.4,25.1-11.4
			c18.5,0,33.5,15,33.5,33.5C182.7,82,167.7,97,149.2,97"/>
		<path id="path22" class="st0" d="M79.1,35.4C63.5,35.4,51,48,51,63.5C51,79,63.5,91.6,79.1,91.6c15.5,0,28.1-12.6,28.1-28.1
			C107.1,48,94.6,35.4,79.1,35.4z M79.1,97c-18.5,0-33.5-15-33.5-33.5C45.6,45,60.6,30,79.1,30c18.5,0,33.5,15,33.5,33.5
			C112.5,82,97.6,97,79.1,97"/>
		<path id="path24" class="st0" d="M100.3,54.2L78.8,75.7L62.3,59.3l3.9-3.9l12.5,12.5l18.6-18.6C93,43.4,86.1,40,78.8,40
			c-12.9,0-23.4,10.5-23.4,23.4l0,0c0,12.9,10.5,23.4,23.4,23.4l0,0c12.9,0,23.4-10.5,23.4-23.4l0,0
			C102.2,60.2,101.6,57.1,100.3,54.2"/>
		<path id="path26" class="st1" d="M66.3,55.3l-3.9,3.9l16.4,16.4l21.5-21.5c-0.8-1.8-1.8-3.4-2.9-4.9L78.8,67.8L66.3,55.3"/>
		<path id="path28" class="st0" d="M11.1,117.9c6,0,8.7,4.5,8.7,8.7c0,2.2-0.7,4.3-2.2,6c-1.7,1.8-4.1,2.8-6.5,2.7
			c-4.6,0.1-8.4-3.6-8.5-8.2c0-0.2,0-0.4,0-0.6c-0.2-4.6,3.4-8.5,7.9-8.7C10.7,117.9,10.9,117.9,11.1,117.9z M19.6,119.8
			c-1.9-2.8-5.1-4.4-8.5-4.3c-6-0.1-11,4.7-11.1,10.7c0,0.2,0,0.3,0,0.5c-0.2,6,4.6,11.1,10.6,11.3c0.2,0,0.3,0,0.5,0
			c3.4,0.1,6.6-1.6,8.5-4.4v4h2.6v-21.8h-2.6L19.6,119.8"/>
		<path id="path30" class="st0" d="M47.3,125.3l-0.8-0.1c-2.7-0.5-6-1.1-6-3.6c0-0.8,0.3-1.5,0.8-2c1-1,3-1.7,5.3-1.7h0.2
			c2.4-0.2,4.7,0.6,6.5,2.2l0.2,0.1l1.6-1.7l-0.2-0.2c-2.2-2-5.1-3-8.1-2.9h-0.2c-3,0-5.6,0.9-7,2.4c-1,1-1.6,2.4-1.5,3.8
			c0,4.6,4.5,5.3,8.5,6c3.4,0.5,6.9,1.1,6.8,4c-0.1,3.5-4.6,3.9-6.4,3.9c-3,0.1-5.8-1.2-7.7-3.5l-0.1-0.2l-1.9,1.7l0.1,0.2
			c1.8,2.7,5.4,4.4,9.5,4.4c2.1,0,8.9-0.4,9-6.2C56,126.7,50.9,125.9,47.3,125.3"/>
		<path id="path32" class="st0" d="M79.8,125.3l-0.8-0.1c-2.7-0.5-6-1.1-6-3.6c0-0.8,0.3-1.5,0.8-2c1-1,3-1.7,5.3-1.7h0.2
			c2.4-0.2,4.7,0.6,6.5,2.2l0.2,0.1l1.6-1.7l-0.2-0.2c-2.2-2-5.1-3-8.1-2.9h-0.2c-3,0-5.6,0.9-7,2.4c-1,1-1.6,2.4-1.5,3.8
			c0,4.6,4.5,5.3,8.5,6c3.4,0.5,6.9,1.1,6.8,4c-0.1,3.5-4.5,3.9-6.4,3.9c-3,0.1-5.8-1.2-7.7-3.5l-0.1-0.2l-1.9,1.7l0.1,0.2
			c1.8,2.7,5.4,4.4,9.5,4.4c2.1,0,8.9-0.4,9-6.2C88.5,126.7,83.5,125.9,79.8,125.3"/>
		<path id="path34" class="st0" d="M103.5,137.5h2.6v-21.9h-2.6V137.5"/>
		<path id="path36" class="st0" d="M131.5,125.3l-0.8-0.1c-2.7-0.5-6-1.1-6-3.6c0-0.8,0.3-1.5,0.8-2c1-1,3-1.7,5.3-1.7h0.2
			c2.4-0.2,4.7,0.6,6.5,2.2l0.2,0.1l1.6-1.7l-0.2-0.2c-2.2-2-5.1-3-8.1-2.9h-0.2c-3,0-5.6,0.9-7,2.4c-1,1-1.6,2.4-1.5,3.8
			c0,4.6,4.5,5.3,8.5,6c3.4,0.5,6.9,1.1,6.8,4c-0.1,3.5-4.6,3.9-6.4,3.9c-3,0.1-5.8-1.2-7.6-3.5l-0.1-0.2l-1.9,1.7l0.1,0.2
			c1.8,2.7,5.4,4.4,9.5,4.4c2.1,0,8.9-0.4,9-6.2C140.2,126.7,135.2,125.9,131.5,125.3"/>
		<path id="path38" class="st0" d="M167.5,134.6c-1,0.5-2.1,0.8-3.2,0.8c-3.1,0-3.7-1.8-3.7-4.7v-12.8h7.3v-2.2h-7.3v-6.5l-2.5,0.3
			v6.2h-4.5v2.2h4.5v12.8c0,4.8,2,7.1,6.2,7.1c1.4-0.1,2.9-0.4,4.1-1.1l0.2-0.1l-0.9-2.1L167.5,134.6"/>
		<path id="path40" class="st0" d="M193.2,117.9c6,0,8.7,4.5,8.7,8.7c0,2.2-0.7,4.3-2.2,6c-1.7,1.8-4.1,2.8-6.5,2.7
			c-4.6,0.1-8.4-3.6-8.5-8.2c0-0.2,0-0.4,0-0.6c-0.2-4.6,3.4-8.5,7.9-8.7C192.8,117.9,193,117.9,193.2,117.9z M201.7,119.8
			c-1.9-2.8-5.1-4.4-8.5-4.3c-6-0.1-11,4.7-11.1,10.7c0,0.2,0,0.3,0,0.5c-0.2,6,4.6,11.1,10.6,11.3c0.2,0,0.3,0,0.5,0
			c3.4,0.1,6.6-1.6,8.5-4.4v4h2.6v-21.8h-2.6L201.7,119.8"/>
		<path id="path42" class="st0" d="M230.4,115.3c-2.9-0.1-5.7,1.3-7.4,3.6v-3.3h-2.5v21.8h2.6v-12.1c-0.2-4,2.9-7.4,6.9-7.6
			c0.1,0,0.3,0,0.4,0h0.1c4.6,0,7.3,2.6,7.3,7.2v12.5h2.6V125C240.3,119.1,236.4,115.3,230.4,115.3"/>
		<path id="path44" class="st0" d="M267.9,134.5l-0.2,0.1c-1,0.5-2.1,0.8-3.2,0.8c-3.1,0-3.7-1.8-3.7-4.7v-12.8h7.3v-2.2h-7.3v-6.5
			l-2.5,0.3v6.2h-4.5v2.2h4.6v12.8c0,4.8,2,7.1,6.2,7.1c1.4-0.1,2.9-0.4,4.1-1.1l0.2-0.1L267.9,134.5"/>
	</g>
</g>
</svg>
