<?xml version="1.0" encoding="utf-8"?>
<!-- Generator: Adobe Illustrator 26.1.0, SVG Export Plug-In . SVG Version: 6.00 Build 0)  -->
<svg version="1.1" id="Layer_1" xmlns="http://www.w3.org/2000/svg" xmlns:xlink="http://www.w3.org/1999/xlink" x="0px" y="0px"
	 viewBox="0 0 86.1 86.1" style="enable-background:new 0 0 86.1 86.1;" xml:space="preserve">
<style type="text/css">
	.st0{opacity:0.1;}
	.st1{fill:#001858;}
</style>
<g id="Icon_feather-image" transform="translate(0.5 0.5)" class="st0">
	<g id="Path_370">
		<path class="st1" d="M70.3,83.5H12.7c-7.3,0-13.2-5.9-13.2-13.2V12.7c0-7.3,5.9-13.2,13.2-13.2h57.6c7.3,0,13.2,5.9,13.2,13.2
			v57.6C83.5,77.6,77.6,83.5,70.3,83.5z M12.7,9.5c-1.8,0-3.2,1.4-3.2,3.2v57.6c0,1.8,1.4,3.2,3.2,3.2h57.6c1.8,0,3.2-1.4,3.2-3.2
			V12.7c0-1.8-1.4-3.2-3.2-3.2H12.7z"/>
	</g>
	<g id="Path_371">
		<path class="st1" d="M33.3,27.1c0,3.4-2.8,6.2-6.2,6.2s-6.2-2.8-6.2-6.2s2.8-6.2,6.2-6.2c0,0,0,0,0,0
			C30.5,20.9,33.3,23.7,33.3,27.1z"/>
		<path class="st1" d="M27.1,35.8c-4.8,0-8.7-3.9-8.7-8.7s3.9-8.7,8.7-8.7c4.8,0,8.7,3.9,8.7,8.7C35.8,31.9,31.9,35.8,27.1,35.8z
			 M27.1,23.4c-2,0-3.7,1.6-3.7,3.7s1.6,3.7,3.7,3.7s3.7-1.6,3.7-3.7C30.8,25.1,29.1,23.4,27.1,23.4z"/>
	</g>
	<g id="Path_372">
		<path class="st1" d="M12.7,83.5c-1.3,0-2.6-0.5-3.5-1.5c-2-2-2-5.1,0-7.1l45.2-45.2c0.9-0.9,2.2-1.5,3.5-1.5l0,0
			c1.3,0,2.6,0.5,3.5,1.5L82,50.3c2,2,2,5.1,0,7.1c-2,2-5.1,2-7.1,0l-17-17L16.3,82C15.3,83,14,83.5,12.7,83.5z"/>
	</g>
</g>
</svg>
