<?xml version="1.0" encoding="utf-8"?>
<!-- Generator: Adobe Illustrator 26.1.0, SVG Export Plug-In . SVG Version: 6.00 Build 0)  -->
<svg version="1.1" id="Layer_1" xmlns="http://www.w3.org/2000/svg" xmlns:xlink="http://www.w3.org/1999/xlink" x="0px" y="0px"
	 viewBox="0 0 25 25" style="enable-background:new 0 0 25 25;" xml:space="preserve">
<style type="text/css">
	.st0{fill:none;}
	.st1{fill:#2C58D5;}
	.st2{fill:#2B59D5;}
</style>
<g id="Group_499" transform="translate(-742 -444)">
	<g id="Ellipse_1" transform="translate(742 444)">
		<g>
			<circle class="st0" cx="12.5" cy="12.5" r="12.5"/>
		</g>
		<g>
			<path class="st1" d="M12.5,25C5.6,25,0,19.4,0,12.5S5.6,0,12.5,0S25,5.6,25,12.5S19.4,25,12.5,25z M12.5,2C6.7,2,2,6.7,2,12.5
				C2,18.3,6.7,23,12.5,23C18.3,23,23,18.3,23,12.5C23,6.7,18.3,2,12.5,2z"/>
		</g>
	</g>
</g>
<g>
	<path class="st2" d="M13.5,7.7c0,0.1,0,0.3-0.1,0.4c-0.1,0.1-0.1,0.2-0.2,0.3c-0.1,0.1-0.2,0.2-0.3,0.2c-0.1,0.1-0.3,0.1-0.4,0.1
		s-0.3,0-0.4-0.1c-0.1-0.1-0.2-0.1-0.3-0.2s-0.2-0.2-0.2-0.3c-0.1-0.1-0.1-0.2-0.1-0.4s0-0.3,0.1-0.4c0.1-0.1,0.1-0.2,0.2-0.3
		s0.2-0.2,0.3-0.2c0.1-0.1,0.2-0.1,0.4-0.1s0.3,0,0.4,0.1s0.2,0.1,0.3,0.2c0.1,0.1,0.2,0.2,0.2,0.3S13.5,7.5,13.5,7.7z M13.2,10.2
		v8.1h-1.4v-8.1H13.2z"/>
</g>
</svg>
