<?xml version="1.0" encoding="utf-8"?>
<!-- Generator: Adobe Illustrator 26.1.0, SVG Export Plug-In . SVG Version: 6.00 Build 0)  -->
<svg version="1.1" id="Layer_1" xmlns="http://www.w3.org/2000/svg" xmlns:xlink="http://www.w3.org/1999/xlink" x="0px" y="0px"
	 viewBox="0 0 22.8 19.1" style="enable-background:new 0 0 22.8 19.1;" xml:space="preserve">
<style type="text/css">
	.st0{fill:#001858;}
</style>
<g id="Icon_feather-users" transform="translate(-0.5 -3.406)">
	<g id="Path_340">
		<path class="st0" d="M16.6,22.5c-0.6,0-1-0.4-1-1v-1.9c0-1.5-1.2-2.8-2.8-2.8H5.3c-1.5,0-2.8,1.2-2.8,2.8v1.9c0,0.6-0.4,1-1,1
			s-1-0.4-1-1v-1.9c0-2.6,2.1-4.8,4.8-4.8h7.6c2.6,0,4.8,2.1,4.8,4.8v1.9C17.6,22.1,17.2,22.5,16.6,22.5z"/>
	</g>
	<g id="Path_341">
		<path class="st0" d="M9.1,13.1c-2.6,0-4.8-2.1-4.8-4.8s2.1-4.8,4.8-4.8c2.6,0,4.8,2.1,4.8,4.8S11.7,13.1,9.1,13.1z M9.1,5.5
			c-1.5,0-2.8,1.2-2.8,2.8s1.2,2.8,2.8,2.8s2.8-1.2,2.8-2.8S10.6,5.5,9.1,5.5z"/>
	</g>
	<g id="Path_342">
		<path class="st0" d="M22.3,22.5c-0.6,0-1-0.4-1-1v-1.9c0-1.3-0.9-2.4-2.1-2.7c-0.5-0.1-0.9-0.7-0.7-1.2c0.1-0.5,0.7-0.9,1.2-0.7
			c2.1,0.5,3.6,2.4,3.6,4.6v1.9C23.3,22.1,22.8,22.5,22.3,22.5z"/>
	</g>
	<g id="Path_343">
		<path class="st0" d="M15.7,12.9c-0.4,0-0.9-0.3-1-0.8c-0.1-0.5,0.2-1.1,0.7-1.2c1-0.3,1.7-1,2-2c0.2-0.7,0.1-1.5-0.3-2.1
			s-1-1.1-1.7-1.3c-0.5-0.1-0.9-0.7-0.7-1.2c0.1-0.5,0.7-0.9,1.2-0.7c1.2,0.3,2.3,1.1,2.9,2.2c0.6,1.1,0.8,2.4,0.5,3.6
			c-0.4,1.7-1.8,3-3.4,3.4C15.8,12.9,15.7,12.9,15.7,12.9z"/>
	</g>
</g>
</svg>
