<?xml version="1.0" encoding="utf-8"?>
<!-- Generator: Adobe Illustrator 26.1.0, SVG Export Plug-In . SVG Version: 6.00 Build 0)  -->
<svg version="1.1" id="Layer_1" xmlns="http://www.w3.org/2000/svg" xmlns:xlink="http://www.w3.org/1999/xlink" x="0px" y="0px"
	 viewBox="0 0 17.5 20" style="enable-background:new 0 0 17.5 20;" xml:space="preserve">
<style type="text/css">
	.st0{fill:#001858;}
</style>
<g id="Group_402" transform="translate(-188.384 -183.542)">
	<g id="Icon_feather-trash-2" transform="translate(189.384 184.542)">
		<g id="Path_344">
			<path class="st0" d="M15.5,5.2H0c-0.6,0-1-0.4-1-1s0.4-1,1-1h15.5c0.6,0,1,0.4,1,1S16.1,5.2,15.5,5.2z"/>
		</g>
		<g id="Path_345">
			<path class="st0" d="M12.1,19H3.5c-1.5,0-2.7-1.2-2.7-2.7V4.2c0-0.6,0.4-1,1-1s1,0.4,1,1v12.1c0,0.4,0.3,0.7,0.7,0.7h8.6
				c0.4,0,0.7-0.3,0.7-0.7V4.2c0-0.6,0.4-1,1-1s1,0.4,1,1v12.1C14.8,17.8,13.6,19,12.1,19z M11.2,5.2c-0.6,0-1-0.4-1-1V1.7
				C10.2,1.3,9.9,1,9.5,1H6C5.6,1,5.3,1.3,5.3,1.7v2.5c0,0.6-0.4,1-1,1s-1-0.4-1-1V1.7C3.3,0.2,4.5-1,6-1h3.5c1.5,0,2.7,1.2,2.7,2.7
				v2.5C12.2,4.7,11.8,5.2,11.2,5.2z"/>
		</g>
	</g>
	<g id="Path_377">
		<path class="st0" d="M195.4,199.2c-0.6,0-1-0.4-1-1V193c0-0.6,0.4-1,1-1s1,0.4,1,1v5.2C196.4,198.8,196,199.2,195.4,199.2z"/>
	</g>
	<g id="Path_378">
		<path class="st0" d="M198.9,199.2c-0.6,0-1-0.4-1-1V193c0-0.6,0.4-1,1-1c0.6,0,1,0.4,1,1v5.2C199.9,198.8,199.4,199.2,198.9,199.2
			z"/>
	</g>
</g>
</svg>
