<?xml version="1.0" encoding="utf-8"?>
<!-- Generator: Adobe Illustrator 26.1.0, SVG Export Plug-In . SVG Version: 6.00 Build 0)  -->
<svg version="1.1" id="Layer_1" xmlns="http://www.w3.org/2000/svg" xmlns:xlink="http://www.w3.org/1999/xlink" x="0px" y="0px"
	 viewBox="0 0 3.2 19.3" style="enable-background:new 0 0 3.2 19.3;" xml:space="preserve">
<style type="text/css">
	.st0{fill:#FFFFFF;}
</style>
<g id="Icon_feather-menu" transform="translate(1.5 1.5)">
	<g id="Path_358">
		<path class="st0" d="M0.2,9.7H0c-0.8,0-1.5-0.7-1.5-1.5S-0.8,6.7,0,6.7h0.2c0.8,0,1.5,0.7,1.5,1.5S1.1,9.7,0.2,9.7z"/>
	</g>
	<g id="Path_359">
		<path class="st0" d="M0.2,1.5H0c-0.8,0-1.5-0.7-1.5-1.5S-0.8-1.5,0-1.5h0.2c0.8,0,1.5,0.7,1.5,1.5S1.1,1.5,0.2,1.5z"/>
	</g>
	<g id="Path_360">
		<path class="st0" d="M0.2,17.8H0c-0.8,0-1.5-0.7-1.5-1.5s0.7-1.5,1.5-1.5h0.2c0.8,0,1.5,0.7,1.5,1.5S1.1,17.8,0.2,17.8z"/>
	</g>
</g>
</svg>
