<?xml version="1.0" encoding="utf-8"?>
<!-- Generator: Adobe Illustrator 26.1.0, SVG Export Plug-In . SVG Version: 6.00 Build 0)  -->
<svg version="1.1" id="Layer_1" xmlns="http://www.w3.org/2000/svg" xmlns:xlink="http://www.w3.org/1999/xlink" x="0px" y="0px"
	 viewBox="0 0 19 19" style="enable-background:new 0 0 19 19;" xml:space="preserve">
<style type="text/css">
	.st0{fill:#F7F7F7;}
</style>
<g id="Icon_feather-log-out" transform="translate(-3.5 -3.5)">
	<g id="Path_379">
		<path class="st0" d="M10.2,22.5H6.4c-1.6,0-2.9-1.3-2.9-2.9V6.4c0-1.6,1.3-2.9,2.9-2.9h3.8c0.6,0,1,0.4,1,1s-0.4,1-1,1H6.4
			c-0.5,0-0.9,0.4-0.9,0.9v13.2c0,0.5,0.4,0.9,0.9,0.9h3.8c0.6,0,1,0.4,1,1S10.7,22.5,10.2,22.5z"/>
	</g>
	<g id="Path_380">
		<path class="st0" d="M16.8,18.7c-0.3,0-0.5-0.1-0.7-0.3c-0.4-0.4-0.4-1,0-1.4l4-4l-4-4c-0.4-0.4-0.4-1,0-1.4s1-0.4,1.4,0l4.7,4.7
			c0.4,0.4,0.4,1,0,1.4l-4.7,4.7C17.3,18.6,17,18.7,16.8,18.7z"/>
	</g>
	<g id="Path_381">
		<path class="st0" d="M21.5,14H10.2c-0.6,0-1-0.4-1-1c0-0.6,0.4-1,1-1h11.3c0.6,0,1,0.4,1,1C22.5,13.6,22.1,14,21.5,14z"/>
	</g>
</g>
</svg>
