<?xml version="1.0" encoding="utf-8"?>
<!-- Generator: Adobe Illustrator 26.1.0, SVG Export Plug-In . SVG Version: 6.00 Build 0)  -->
<svg version="1.1" id="Layer_1" xmlns="http://www.w3.org/2000/svg" xmlns:xlink="http://www.w3.org/1999/xlink" x="0px" y="0px"
	 viewBox="0 0 21.6 21.6" style="enable-background:new 0 0 21.6 21.6;" xml:space="preserve">
<style type="text/css">
	.st0{fill:#001858;}
</style>
<g id="Icon_feather-search" transform="translate(-3 -3)">
	<g id="Path_1">
		<path class="st0" d="M12.5,22C7.3,22,3,17.7,3,12.5S7.3,3,12.5,3S22,7.3,22,12.5S17.7,22,12.5,22z M12.5,6C8.9,6,6,8.9,6,12.5
			S8.9,19,12.5,19s6.5-2.9,6.5-6.5S16.1,6,12.5,6z"/>
	</g>
	<g id="Path_2">
		<path class="st0" d="M22.5,24c-0.4,0-0.8-0.1-1.1-0.4l-4.3-4.3c-0.6-0.6-0.6-1.5,0-2.1s1.5-0.6,2.1,0l4.3,4.3
			c0.6,0.6,0.6,1.5,0,2.1C23.3,23.9,22.9,24,22.5,24z"/>
	</g>
</g>
</svg>
